<svg width="30" height="30" viewBox="0 0 30 30" fill="none" xmlns="http://www.w3.org/2000/svg">
<rect width="30" height="30" fill="#F5F5F5"/>
<rect width="2950" height="2793" transform="translate(-1325 -531)" fill="white"/>
<g clip-path="url(#clip0_0_1)">
<rect width="360" height="800" transform="translate(-82 -332)" fill="white"/>
<rect x="-82" y="-332" width="360" height="800" fill="#131313"/>
<rect x="-57.5" y="-69.5" width="145" height="169" rx="13.5" fill="#323435"/>
<path d="M15 2.5C8.1125 2.5 2.5 8.1125 2.5 15C2.5 21.8875 8.1125 27.5 15 27.5C21.8875 27.5 27.5 21.8875 27.5 15C27.5 8.1125 21.8875 2.5 15 2.5ZM20 15.9375H15.9375V20C15.9375 20.5125 15.5125 20.9375 15 20.9375C14.4875 20.9375 14.0625 20.5125 14.0625 20V15.9375H10C9.4875 15.9375 9.0625 15.5125 9.0625 15C9.0625 14.4875 9.4875 14.0625 10 14.0625H14.0625V10C14.0625 9.4875 14.4875 9.0625 15 9.0625C15.5125 9.0625 15.9375 9.4875 15.9375 10V14.0625H20C20.5125 14.0625 20.9375 14.4875 20.9375 15C20.9375 15.5125 20.5125 15.9375 20 15.9375Z" fill="#ACACB0"/>
<rect x="-57.5" y="-69.5" width="145" height="169" rx="13.5" stroke="#868A8C"/>
</g>
<defs>
<clipPath id="clip0_0_1">
<rect width="360" height="800" fill="white" transform="translate(-82 -332)"/>
</clipPath>
</defs>
</svg>
