<svg width="25" height="25" viewBox="0 0 25 25" fill="none" xmlns="http://www.w3.org/2000/svg">
<path d="M21.6556 11.9903L12.4656 21.1803C11.3398 22.3062 9.81281 22.9387 8.22062 22.9387C6.62844 22.9387 5.10147 22.3062 3.97562 21.1803C2.84978 20.0545 2.21729 18.5275 2.21729 16.9353C2.21729 15.3432 2.84978 13.8162 3.97562 12.6903L13.1656 3.50035C13.9162 2.74979 14.9342 2.32812 15.9956 2.32812C17.0571 2.32813 18.0751 2.74979 18.8256 3.50035C19.5762 4.25091 19.9978 5.26889 19.9978 6.33035C19.9978 7.3918 19.5762 8.40979 18.8256 9.16035L9.62562 18.3503C9.25034 18.7256 8.74135 18.9365 8.21062 18.9365C7.67989 18.9365 7.1709 18.7256 6.79562 18.3503C6.42034 17.9751 6.20951 17.4661 6.20951 16.9353C6.20951 16.4046 6.42034 15.8956 6.79562 15.5203L15.2856 7.04035" stroke="black" stroke-width="2" stroke-linecap="round" stroke-linejoin="round"/>
</svg>
