<svg width="19" height="22" viewBox="0 0 19 22" fill="none" xmlns="http://www.w3.org/2000/svg">
<g clip-path="url(#clip0_207_4675)">
<path d="M15.6955 11.6121C15.6704 8.84822 17.9792 7.52134 18.0837 7.45665C16.7845 5.57783 14.7625 5.32045 14.0412 5.29016C12.3214 5.11811 10.6838 6.29082 9.81209 6.29082C8.94037 6.29082 7.59241 5.31494 6.16646 5.34247C4.28934 5.37 2.56121 6.42021 1.5948 8.08017C-0.35334 11.4208 1.09767 16.3718 2.99429 19.0833C3.9231 20.4088 5.02877 21.9022 6.48256 21.8472C7.88344 21.7921 8.4126 20.9525 10.1031 20.9525C11.7937 20.9525 12.2699 21.8472 13.7501 21.821C15.2555 21.7921 16.2107 20.4666 17.1326 19.137C18.1965 17.5981 18.6365 16.1089 18.6616 16.0304C18.6282 16.0166 15.7261 14.9169 15.6955 11.6121Z" fill="#23272A"/>
<path d="M12.9148 3.49661C13.6862 2.57303 14.207 1.28881 14.0636 0.00878906C12.9523 0.0528823 11.6072 0.741061 10.8092 1.66464C10.0949 2.4809 9.46826 3.78846 9.63807 5.04242C10.8775 5.1374 12.1432 4.41884 12.9148 3.49661Z" fill="#23272A"/>
</g>
<defs>
<clipPath id="clip0_207_4675">
<rect width="18" height="21.8571" fill="white" transform="translate(0.666748)"/>
</clipPath>
</defs>
</svg>
