<svg width="25" height="25" viewBox="0 0 25 25" fill="none" xmlns="http://www.w3.org/2000/svg">
<path d="M17.2406 3.07843C17.5032 2.81578 17.815 2.60744 18.1582 2.4653C18.5014 2.32316 18.8692 2.25 19.2406 2.25C19.612 2.25 19.9798 2.32316 20.323 2.4653C20.6662 2.60744 20.978 2.81578 21.2406 3.07843C21.5032 3.34107 21.7116 3.65287 21.8537 3.99603C21.9959 4.3392 22.069 4.70699 22.069 5.07843C22.069 5.44986 21.9959 5.81766 21.8537 6.16082C21.7116 6.50398 21.5032 6.81578 21.2406 7.07843L7.7406 20.5784L2.2406 22.0784L3.7406 16.5784L17.2406 3.07843Z" stroke="black" stroke-width="2" stroke-linecap="round" stroke-linejoin="round"/>
</svg>
