<svg width="13" height="12" viewBox="0 0 13 12" fill="none" xmlns="http://www.w3.org/2000/svg">
<g clip-path="url(#clip0_207_4706)">
<path d="M8.19171 2.5C8.68008 2.59528 9.12891 2.83413 9.48075 3.18597C9.83259 3.53781 10.0714 3.98663 10.1667 4.475M8.19171 0.5C9.20635 0.612718 10.1525 1.06709 10.8748 1.7885C11.5972 2.50992 12.0527 3.4555 12.1667 4.47M11.6667 8.46V9.96C11.6673 10.0993 11.6388 10.2371 11.583 10.3647C11.5272 10.4923 11.4454 10.6068 11.3428 10.7009C11.2401 10.7951 11.119 10.8667 10.9871 10.9114C10.8552 10.956 10.7154 10.9725 10.5767 10.96C9.03813 10.7928 7.56021 10.2671 6.26171 9.425C5.05363 8.65733 4.02938 7.63309 3.26171 6.425C2.4167 5.1206 1.89084 3.6355 1.72671 2.09C1.71422 1.95173 1.73065 1.81238 1.77496 1.68081C1.81928 1.54924 1.8905 1.42834 1.9841 1.32581C2.0777 1.22328 2.19162 1.14135 2.31861 1.08526C2.4456 1.02917 2.58288 1.00013 2.72171 1H4.22171C4.46437 0.997612 4.69961 1.08354 4.8836 1.24177C5.06758 1.39999 5.18775 1.61972 5.22171 1.86C5.28503 2.34003 5.40244 2.81136 5.57171 3.265C5.63899 3.44396 5.65355 3.63846 5.61367 3.82544C5.57379 4.01242 5.48115 4.18406 5.34671 4.32L4.71171 4.955C5.42349 6.20677 6.45994 7.24322 7.71171 7.955L8.34671 7.32C8.48266 7.18557 8.65429 7.09292 8.84127 7.05305C9.02826 7.01317 9.22275 7.02773 9.40171 7.095C9.85535 7.26428 10.3267 7.38169 10.8067 7.445C11.0496 7.47926 11.2714 7.6016 11.43 7.78875C11.5885 7.97589 11.6728 8.21479 11.6667 8.46Z" stroke="#363644" stroke-linecap="round" stroke-linejoin="round"/>
</g>
<defs>
<clipPath id="clip0_207_4706">
<rect width="12" height="12" fill="white" transform="translate(0.666748)"/>
</clipPath>
</defs>
</svg>
