<svg width="22" height="22" viewBox="0 0 22 22" fill="none" xmlns="http://www.w3.org/2000/svg">
<path d="M17.4167 8.25V15.5833C17.4167 17.3118 17.4167 18.176 16.8797 18.713C16.3427 19.25 15.4785 19.25 13.75 19.25H12.8334H9.16671H8.25004C6.52156 19.25 5.65731 19.25 5.12035 18.713C4.58337 18.176 4.58337 17.3118 4.58337 15.5833V8.25" stroke="#363644" stroke-linejoin="round"/>
<path d="M2.75 10.0834L6.875 6.41671L9.78203 3.83271C10.4766 3.21527 11.5234 3.21527 12.218 3.83271L15.125 6.41671L19.25 10.0834" stroke="#363644" stroke-linecap="round" stroke-linejoin="round"/>
<path d="M9.16663 19.25V15.5833C9.16663 14.5708 9.98741 13.75 11 13.75C12.0125 13.75 12.8333 14.5708 12.8333 15.5833V19.25" stroke="#363644" stroke-linecap="round" stroke-linejoin="round"/>
</svg>
