<svg width="22" height="22" viewBox="0 0 22 22" fill="none" xmlns="http://www.w3.org/2000/svg">
<path d="M19.1034 4.22604C18.6352 3.75763 18.0793 3.38605 17.4674 3.13254C16.8556 2.87902 16.1998 2.74854 15.5375 2.74854C14.8752 2.74854 14.2195 2.87902 13.6076 3.13254C12.9958 3.38605 12.4399 3.75763 11.9717 4.22604L11 5.19771L10.0284 4.22604C9.08264 3.28032 7.79997 2.74903 6.46253 2.74903C5.12508 2.74903 3.84241 3.28032 2.89669 4.22604C1.95098 5.17176 1.41968 6.45443 1.41968 7.79187C1.41968 9.12932 1.95098 10.412 2.89669 11.3577L3.86836 12.3294L11 19.461L18.1317 12.3294L19.1034 11.3577C19.5718 10.8895 19.9434 10.3336 20.1969 9.72178C20.4504 9.10995 20.5809 8.45416 20.5809 7.79187C20.5809 7.12959 20.4504 6.4738 20.1969 5.86197C19.9434 5.25013 19.5718 4.69423 19.1034 4.22604Z" fill="#FD4E4E"/>
</svg>
