<svg width="15" height="14" viewBox="0 0 15 14" fill="none" xmlns="http://www.w3.org/2000/svg">
<path d="M7.66658 11.0832C9.92175 11.0832 11.7499 9.255 11.7499 6.99984C11.7499 4.74467 9.92175 2.9165 7.66658 2.9165C5.41142 2.9165 3.58325 4.74467 3.58325 6.99984C3.58325 9.255 5.41142 11.0832 7.66658 11.0832Z" stroke="#3B10B7" stroke-linecap="round" stroke-linejoin="round"/>
<path d="M7.6665 5.25V7L8.5415 7.875" stroke="#3B10B7" stroke-linecap="round" stroke-linejoin="round"/>
<path d="M10.2973 10.121L10.0931 12.3552C10.0668 12.646 9.93241 12.9165 9.7164 13.1131C9.50039 13.3096 9.21851 13.418 8.92645 13.4168H6.40062C6.10856 13.418 5.82668 13.3096 5.61067 13.1131C5.39466 12.9165 5.26023 12.646 5.23395 12.3552L5.02979 10.121M5.03562 3.87934L5.23979 1.64517C5.26598 1.3553 5.39958 1.08569 5.61435 0.889261C5.82913 0.692834 6.10957 0.58378 6.40062 0.583506H8.93812C9.23018 0.582321 9.51206 0.690721 9.72807 0.88729C9.94408 1.08386 10.0785 1.3543 10.1048 1.64517L10.309 3.87934" stroke="#3B10B7" stroke-linecap="round" stroke-linejoin="round"/>
</svg>
